<svg height="744" viewBox="0 0 1005 744" width="1005" xmlns="http://www.w3.org/2000/svg"><g fill="none" fill-rule="evenodd" transform="matrix(-1 0 0 1 1005 0)"><circle cx="372" cy="372" fill="#6df0c2" r="372"/><path d="M744 375.286c0 16.856-1.089 33.452-3.183 49.714C658.602 398.586 599 320.482 599 228.234c0-44.425 13.824-85.567 37.327-119.234C702.905 177.425 744 271.482 744 375.286" fill="#fff"/><path d="M1005 228.506C1005 342.556 914.038 435 801.832 435c-21.383 0-41.993-3.355-61.352-9.589a389.43 389.43 0 0 0 3.184-49.75c0-103.877-41.092-197.999-107.664-266.474C672.809 56.427 733.365 22 801.832 22 914.038 22 1005 114.456 1005 228.506" fill="#141c3a"/></g></svg>