<?xml version="1.0" encoding="utf-8"?>
<!-- Generator: Adobe Illustrator 22.1.0, SVG Export Plug-In . SVG Version: 6.00 Build 0)  -->
<svg version="1.1" id="Layer_1" xmlns="http://www.w3.org/2000/svg" xmlns:xlink="http://www.w3.org/1999/xlink" x="0px" y="0px"
	 viewBox="0 0 1005 744" style="enable-background:new 0 0 1005 744;" xml:space="preserve">
<style type="text/css">
	.st0{fill:#389FFF;}
	.st1{fill:#FFFFFF;}
	.st2{fill:#FFDB0B;}
</style>
<path class="st0" d="M633,0C529.9,0,436.6,42,369.2,109.7c23.2,33.5,36.8,74.4,36.8,118.5c0,92-59.3,170-141.3,196.6
	C290.4,605.3,445.5,744,633,744c205.4,0,372-166.6,372-372S838.4,0,633,0z"/>
<path class="st1" d="M264.5,424.9c0.1,0,0.2-0.1,0.3-0.1c-0.9-6.4-1.7-12.9-2.3-19.5C263,411.9,263.6,418.4,264.5,424.9z"/>
<path class="st1" d="M369.2,109.7c-0.1-0.1-0.2-0.3-0.3-0.4c-10.7,11-20.7,22.7-30.1,35C348.2,132.2,358.4,120.6,369.2,109.7z"/>
<path class="st2" d="M261,375.3c0-0.6,0-1.1,0-1.7c0-0.5,0-1.1,0-1.6c0-69.7,19.2-134.9,52.5-190.7c15.5-26.3,34-50.6,55.1-72.3
	c0.1,0.1,0.1,0.2,0.2,0.3c0,0,0.1-0.1,0.1-0.1C332.2,56.4,271.6,22,203.2,22C91,22,0,114.5,0,228.5S91,435,203.2,435
	c21.4,0,42-3.4,61.4-9.6c0-0.2,0-0.3-0.1-0.5c-0.1,0-0.2,0.1-0.3,0.1C262.1,408.7,261,392.1,261,375.3z"/>
<path class="st2" d="M261,372c0,0.5,0,1.1,0,1.6c0.3-70.3,19.4-136,52.5-192.3C280.2,237.1,261,302.3,261,372z"/>
<path class="st2" d="M313.5,181.3c7.7-12.9,16.2-25.2,25.3-37c9.3-12.3,19.4-24,30.1-35c-0.1-0.1-0.1-0.2-0.2-0.3
	C347.6,130.7,329,155,313.5,181.3z"/>
<path class="st2" d="M261,373.6c0,0.6,0,1.1,0,1.7c0,16.9,1.1,33.5,3.2,49.7c0.1,0,0.2-0.1,0.3-0.1c-0.8-6.5-1.5-13-2-19.6
	C261.5,394.9,261.1,384.3,261,373.6z"/>
<path class="st2" d="M261,373.6c0,10.7,0.5,21.3,1.5,31.7c-0.8-9.9-1.1-19.8-1.1-29.7c0-87.1,28.9-167.4,77.5-231.4
	c-9.1,11.8-17.6,24.2-25.3,37C280.4,237.6,261.3,303.4,261,373.6z"/>
</svg>
